<?xml version="1.0"?>

<!DOCTYPE svg PUBLIC '-//W3C//DTD SVG 1.0//EN' 'http://www.w3.org/TR/2001/REC-SVG-20010904/DTD/svg10.dtd'>
<svg fill-opacity="1" xmlns:xlink="http://www.w3.org/1999/xlink" color-rendering="auto" color-interpolation="auto" stroke="black" text-rendering="auto" stroke-linecap="square" width="1050" stroke-miterlimit="10" stroke-opacity="1" shape-rendering="auto" fill="black" stroke-dasharray="none" font-weight="normal" stroke-width="1" height="975" xmlns="http://www.w3.org/2000/svg" font-family="&apos;Dialog&apos;" font-style="normal" stroke-linejoin="miter" font-size="12" stroke-dashoffset="0" image-rendering="auto">
  <!--Generated by Marvin with Batik SVG Generator
MolSource:
<?xml version="1.0" encoding="MacRoman"?><cml xmlns="http://www.chemaxon.com" xmlns:xsi="http://www.w3.org/2001/XMLSchema-instance" xsi:schemaLocation="http://www.chemaxon.com/marvin/help/formats/schema/mrvSchema_6_1_0.xsd" version="ChemAxon file format v6.1, generated by v6.1.3">
<MDocument atomSetFont="0:Arial-PLAIN-18" bondSetLineThickness="0:0.06"><MChemicalStruct><molecule molID="m1"><atomArray atomID="a1 a2 a3 a4 a5 a6 a7 a8 a9 a10 a11 a12 a13 a14 a15 a16 a17 a18" elementType="C C N C C C C O C C C O O C O C N O" formalCharge="0 0 1 0 0 0 0 0 0 0 0 0 0 0 0 0 0 0" x2="-2.4749999046325684 -3.808669245680827 -3.808669245680827 -2.4749999046325684 -1.14133056358431 -1.14133056358431 -5.1423532578180575 -6.549223014575017 -7.579634361951233 -6.809638920690566 -5.303370390615257 -4.158945868930907 -7.436023201939336 -9.111197163225722 -10.016393553423562 -2.474999904632568 -1.1413207828045322 -3.808679026460603" y2="2.3100338620445946 1.5400169214855541 -1.69596325269028E-5 -0.7700339001915675 -1.69596325269028E-5 1.5400169214855541 -0.770008489306418 -0.14365596275079417 -1.2880320806665129 -2.6217228679701536 -2.301567656608084 -3.3320493469682506 -4.028578486789819 -1.1270495171627555 -2.372930528805842 3.8500338620445946 4.620033862044594 4.620033862044595"></atomArray><bondArray><bond id="b1" atomRefs2="a1 a2" order="1"></bond><bond id="b2" atomRefs2="a1 a6" order="2"></bond><bond id="b3" atomRefs2="a2 a3" order="2"></bond><bond id="b4" atomRefs2="a3 a4" order="1"></bond><bond id="b5" atomRefs2="a4 a5" order="2"></bond><bond id="b6" atomRefs2="a5 a6" order="1"></bond><bond id="b7" atomRefs2="a7 a3" order="1"><bondStereo>W</bondStereo></bond><bond id="b8" atomRefs2="a7 a8" order="1"></bond><bond id="b9" atomRefs2="a7 a11" order="1"></bond><bond id="b10" atomRefs2="a8 a9" order="1"></bond><bond id="b11" atomRefs2="a9 a10" order="1"></bond><bond id="b12" atomRefs2="a10 a11" order="1"></bond><bond id="b13" atomRefs2="a11 a12" order="1"><bondStereo>H</bondStereo></bond><bond id="b14" atomRefs2="a10 a13" order="1"><bondStereo>H</bondStereo></bond><bond id="b15" atomRefs2="a9 a14" order="1"><bondStereo>W</bondStereo></bond><bond id="b16" atomRefs2="a14 a15" order="1"></bond><bond id="b17" atomRefs2="a1 a16" order="1"></bond><bond id="b18" atomRefs2="a16 a17" order="1"></bond><bond id="b19" atomRefs2="a16 a18" order="2"></bond></bondArray></molecule></MChemicalStruct></MDocument>
</cml>-->
  <defs id="genericDefs" />
  <g>
    <defs id="defs1">
      <clipPath clipPathUnits="userSpaceOnUse" id="clipPath1">
        <path d="M0 0 L1050 0 L1050 975 L0 975 L0 0 Z" />
      </clipPath>
      <clipPath clipPathUnits="userSpaceOnUse" id="clipPath2">
        <path d="M1011.2000122070312 84.10125732421875 C1011.2000122070312 84.10125732421875 1011.2000122070312 84.10126495361328 1011.2000122070312 84.10126495361328 L1011.2000122070312 84.10126495361328 L1011.2000122070312 84.10125732421875 ZM679.125 38 C692.5869140625 38 703.5 50.759883880615234 703.5 66.5 L703.5 108.30000305175781 C703.5 124.04011535644531 692.5869140625 136.8000030517578 679.125 136.8000030517578 L656.375 136.8000030517578 C642.9130859375 136.8000030517578 632 124.04011535644531 632 108.30000305175781 L632 66.5 C632 50.759883880615234 642.9130859375 38 656.375 38 ZM965.4500122070312 38 C990.717041015625 38 1011.2000122070312 50.759883880615234 1011.2000122070312 66.5 L1011.2000122070312 84.10125732421875 L1011.2000122070312 84.10125732421875 C1011.6278076171875 84.03427124023438 1012.0614624023438 84 1012.5 84 L1025.0999755859375 84 C1032.5557861328125 84 1038.5999755859375 93.90570068359375 1038.5999755859375 106.125 L1038.5999755859375 138.5749969482422 C1038.5999755859375 150.79429626464844 1032.5557861328125 160.6999969482422 1025.0999755859375 160.6999969482422 L1012.5 160.6999969482422 C1005.0441284179688 160.6999969482422 999 150.79429626464844 999 138.5749969482422 L999 127.67646026611328 L999 127.67646026611328 C990.64453125 133.28811645507812 978.7056274414062 136.8000030517578 965.4500122070312 136.8000030517578 L922.75 136.8000030517578 C897.4829711914062 136.8000030517578 877 124.04011535644531 877 108.30000305175781 L877 66.5 C877 50.759883880615234 897.4829711914062 38 922.75 38 ZM678.2249755859375 459 C690.8585205078125 459 701.0999755859375 471.7598876953125 701.0999755859375 487.5 L701.0999755859375 529.2999877929688 C701.0999755859375 545.0401000976562 690.8585205078125 557.7999877929688 678.2249755859375 557.7999877929688 L656.875 557.7999877929688 C644.2415161132812 557.7999877929688 634 545.0401000976562 634 529.2999877929688 L634 487.5 C634 471.7598876953125 644.2415161132812 459 656.875 459 ZM429.125 472 C442.5869445800781 472 453.5 484.7598876953125 453.5 500.5 L453.5 542.2999877929688 C453.5 558.0401000976562 442.5869445800781 570.7999877929688 429.125 570.7999877929688 L406.375 570.7999877929688 C392.9130554199219 570.7999877929688 382 558.0401000976562 382 542.2999877929688 L382 500.5 C382 484.7598876953125 392.9130554199219 472 406.375 472 ZM96.3499984741211 676 C122.4454574584961 676 143.60000610351562 688.7598876953125 143.60000610351562 704.5 L143.60000610351562 746.2999877929688 C143.60000610351562 762.0401000976562 122.4454574584961 774.7999877929688 96.3499984741211 774.7999877929688 L52.25 774.7999877929688 C26.154544830322266 774.7999877929688 5 762.0401000976562 5 746.2999877929688 L5 704.5 C5 688.7598876953125 26.154544830322266 676 52.25 676 ZM691.3499755859375 763 C717.4454345703125 763 738.5999755859375 775.7598876953125 738.5999755859375 791.5 L738.5999755859375 833.2999877929688 C738.5999755859375 849.0401000976562 717.4454345703125 861.7999877929688 691.3499755859375 861.7999877929688 L647.25 861.7999877929688 C621.154541015625 861.7999877929688 600 849.0401000976562 600 833.2999877929688 L600 791.5 C600 775.7598876953125 621.154541015625 763 647.25 763 ZM331.3500061035156 827 C357.4454650878906 827 378.6000061035156 839.7598876953125 378.6000061035156 855.5 L378.6000061035156 897.2999877929688 C378.6000061035156 913.0401000976562 357.4454650878906 925.7999877929688 331.3500061035156 925.7999877929688 L287.25 925.7999877929688 C261.154541015625 925.7999877929688 240 913.0401000976562 240 897.2999877929688 L240 855.5 C240 839.7598876953125 261.154541015625 827 287.25 827 ZM0 0 L0 975 L1050 975 L1050 0 Z" />
      </clipPath>
    </defs>
    <g text-rendering="optimizeLegibility" font-size="43" shape-rendering="geometricPrecision" font-family="sans-serif">
      <text xml:space="preserve" x="810" y="272" clip-path="url(#clipPath1)" stroke="none">
      </text>
      <text xml:space="preserve" x="668" y="332" clip-path="url(#clipPath1)" stroke="none">
      </text>
      <text font-size="84" x="634" y="535" clip-path="url(#clipPath1)" font-family="&apos;Arial&apos;" stroke="none" xml:space="preserve">N
      </text>
      <text xml:space="preserve" x="688" y="482" clip-path="url(#clipPath1)" stroke="none">+
      </text>
      <text xml:space="preserve" x="790" y="543" clip-path="url(#clipPath1)" stroke="none">
      </text>
      <text xml:space="preserve" x="931" y="482" clip-path="url(#clipPath1)" stroke="none">
      </text>
      <text xml:space="preserve" x="931" y="342" clip-path="url(#clipPath1)" stroke="none">
      </text>
      <text xml:space="preserve" x="547" y="543" clip-path="url(#clipPath1)" stroke="none">
      </text>
      <text font-size="84" x="382" y="548" clip-path="url(#clipPath1)" font-family="&apos;Arial&apos;" stroke="none" xml:space="preserve">O
      </text>
      <text xml:space="preserve" x="354" y="623" clip-path="url(#clipPath1)" stroke="none">
      </text>
      <text xml:space="preserve" x="400" y="713" clip-path="url(#clipPath1)" stroke="none">
      </text>
      <text xml:space="preserve" x="560" y="705" clip-path="url(#clipPath1)" stroke="none">
      </text>
      <text font-size="84" x="600" y="839" clip-path="url(#clipPath1)" font-family="&apos;Arial&apos;" stroke="none" xml:space="preserve">OH
      </text>
      <text font-size="84" x="240" y="903" clip-path="url(#clipPath1)" font-family="&apos;Arial&apos;" stroke="none" xml:space="preserve">HO
      </text>
      <text xml:space="preserve" x="205" y="585" clip-path="url(#clipPath1)" stroke="none">
      </text>
      <text font-size="84" x="5" y="752" clip-path="url(#clipPath1)" font-family="&apos;Arial&apos;" stroke="none" xml:space="preserve">HO
      </text>
      <text xml:space="preserve" x="790" y="122" clip-path="url(#clipPath1)" stroke="none">
      </text>
      <text font-size="84" x="877" y="114" clip-path="url(#clipPath1)" font-family="&apos;Arial&apos;" stroke="none" xml:space="preserve">NH
      </text>
      <text font-size="65" x="999" y="143" clip-path="url(#clipPath1)" font-family="&apos;Arial&apos;" stroke="none" xml:space="preserve">2
      </text>
      <text font-size="84" x="632" y="114" clip-path="url(#clipPath1)" font-family="&apos;Arial&apos;" stroke="none" xml:space="preserve">O
      </text>
    </g>
    <g font-size="84" stroke-linecap="round" text-rendering="optimizeLegibility" font-family="&apos;Arial&apos;" stroke-linejoin="bevel" shape-rendering="geometricPrecision" stroke-width="5.469348430633545">
      <line clip-path="url(#clipPath2)" fill="none" x1="785.7077921161131" x2="664.1360857913928" y1="295.69546312624266" y2="365.8869794800073" />
      <line clip-path="url(#clipPath2)" fill="none" x1="785.7077921161131" x2="907.2794984408334" y1="295.69546312624266" y2="365.8869794800073" />
      <line clip-path="url(#clipPath2)" fill="none" x1="785.7077921161131" x2="882.0111084764029" y1="324.87310060168863" y2="380.4754772531262" />
      <line clip-path="url(#clipPath2)" fill="none" x1="664.1360857913928" x2="664.1360857913928" y1="365.8869794800073" y2="467.3791392222765" />
      <line clip-path="url(#clipPath2)" fill="none" x1="689.4044757558233" x2="689.4044757558233" y1="380.4754772531262" y2="467.3791392222765" />
      <line clip-path="url(#clipPath2)" fill="none" x1="697.816322752672" x2="785.7077921161131" y1="525.7158764838872" y2="576.4615285413012" />
      <line clip-path="url(#clipPath2)" fill="none" x1="785.7077921161131" x2="907.2794984408334" y1="576.4615285413012" y2="506.27001218753657" />
      <line clip-path="url(#clipPath2)" fill="none" x1="785.7077921161131" x2="882.0111084764029" y1="547.2838910658552" y2="491.6815144144177" />
      <line clip-path="url(#clipPath2)" fill="none" x1="907.2794984408334" x2="907.2794984408334" y1="506.27001218753657" y2="365.8869794800073" />
      <path stroke-linecap="square" clip-path="url(#clipPath2)" stroke-linejoin="miter" d="M541.1957397460938 574.0908813476562 L543.9303588867188 578.8275146484375 L635.7196655273438 534.8331909179688 L625.1912841796875 516.5972290039062" stroke="none" stroke-width="1" />
      <line clip-path="url(#clipPath2)" fill="none" x1="542.5630421117036" x2="449.8475193666381" y1="576.4592121915346" y2="535.1813315324443" />
      <line clip-path="url(#clipPath2)" fill="none" x1="542.5630421117036" x2="527.8853952773813" y1="576.4592121915346" y2="716.0697255139623" />
      <line clip-path="url(#clipPath2)" fill="none" x1="388.2954734143341" x2="320.3907138571045" y1="548.2649611786012" y2="623.6800712004151" />
      <line clip-path="url(#clipPath2)" fill="none" x1="320.3907138571045" x2="390.5802704249554" y1="623.6800712004151" y2="745.2537324758724" />
      <line clip-path="url(#clipPath2)" fill="none" x1="390.5802704249554" x2="527.8853952773813" y1="745.2537324758724" y2="716.0697255139623" />
      <line clip-path="url(#clipPath2)" fill="none" x1="609.9529381211617" x2="595.9306793038859" y1="775.8668981484999" y2="791.4396317448494" />
      <line clip-path="url(#clipPath2)" fill="none" x1="598.5772391131128" x2="586.4986597358555" y1="767.578181149653" y2="780.992318009875" />
      <line clip-path="url(#clipPath2)" fill="none" x1="587.2015401050642" x2="577.0666401678252" y1="759.2894641508062" y2="770.5450042749005" />
      <line clip-path="url(#clipPath2)" fill="none" x1="575.8258410970153" x2="567.6346205997949" y1="751.0007471519594" y2="760.097690539926" />
      <line clip-path="url(#clipPath2)" fill="none" x1="564.4501420889666" x2="558.2026010317646" y1="742.7120301531128" y2="749.6503768049516" />
      <line clip-path="url(#clipPath2)" fill="none" x1="553.0744430809178" x2="548.7705814637342" y1="734.4233131542659" y2="739.2030630699772" />
      <line clip-path="url(#clipPath2)" fill="none" x1="541.6987440728691" x2="539.338561895704" y1="726.1345961554191" y2="728.7557493350027" />
      <path d="M528.2911987304688 716.015625 L527.8746948242188 716.4781494140625 C526.8636474609375 717.6005249023438 526.953857421875 719.3292846679688 528.0762939453125 720.3402709960938 C529.1986694335938 721.351318359375 530.9274291992188 721.2611083984375 531.9384155273438 720.138671875 L532.3549194335938 719.6761474609375 C533.365966796875 718.5537719726562 533.2757568359375 716.8250122070312 532.1533203125 715.8140258789062 C531.0309448242188 714.802978515625 529.3021850585938 714.8931884765625 528.2911987304688 716.015625 Z" clip-path="url(#clipPath2)" stroke="none" />
      <line clip-path="url(#clipPath2)" fill="none" x1="359.0711031367479" x2="339.9273436792335" y1="841.783291784429" y2="833.259780311194" />
      <line clip-path="url(#clipPath2)" fill="none" x1="363.43871048362814" x2="346.9485414459672" y1="828.4029568307676" y2="821.0609221954069" />
      <line clip-path="url(#clipPath2)" fill="none" x1="367.8063178305084" x2="353.9697392127009" y1="815.0226218771064" y2="808.8620640796197" />
      <line clip-path="url(#clipPath2)" fill="none" x1="372.17392517738864" x2="360.9909369794347" y1="801.6422869234451" y2="796.6632059638326" />
      <line clip-path="url(#clipPath2)" fill="none" x1="376.5415325242689" x2="368.01213474616844" y1="788.2619519697838" y2="784.4643478480453" />
      <line clip-path="url(#clipPath2)" fill="none" x1="380.90913987114914" x2="375.0333325129021" y1="774.8816170161225" y2="772.2654897322583" />
      <line clip-path="url(#clipPath2)" fill="none" x1="385.2767472180294" x2="382.05453027963586" y1="761.5012820624611" y2="760.0666316164711" />
      <line clip-path="url(#clipPath2)" fill="none" x1="389.64435456490963" x2="389.07572804636965" y1="748.1209471087999" y2="747.8677735006839" />
      <path stroke-linecap="square" clip-path="url(#clipPath2)" stroke-linejoin="miter" d="M320.1048583984375 626.3997802734375 L320.67657470703125 620.9603881835938 L184.6787109375 598.9868774414062 L170.1339569091797 619.0057983398438" stroke="none" stroke-width="1" />
      <line clip-path="url(#clipPath2)" fill="none" x1="180.77986927694792" x2="121.12562189473107" y1="609.005575557967" y2="691.1116189339458" />
      <line clip-path="url(#clipPath2)" fill="none" x1="785.7077921161131" x2="785.7077921161131" y1="295.69546312624266" y2="155.31551887940645" />
      <line clip-path="url(#clipPath2)" fill="none" x1="785.7077921161131" x2="873.5999060524477" y1="155.31551887940645" y2="104.57098323861845" />
      <line clip-path="url(#clipPath2)" fill="none" x1="785.7077921161132" x2="691.4985806886708" y1="169.90423062735886" y2="115.51251704958267" />
      <line clip-path="url(#clipPath2)" fill="none" x1="798.3419870983283" x2="704.1327756708862" y1="148.02116300543022" y2="93.62944942765407" />
    </g>
  </g>
</svg>
